<svg xmlns="http://www.w3.org/2000/svg" viewBox="0 0 64 64" fill="none">
<path d="M10 10 L28 10 L28 18 Q24 18, 24 22 Q24 26, 28 26 L28 34 L10 34 Z" fill="#2E86AB" opacity="0.7"/>
<path d="M28 10 L46 10 L46 34 L28 34 L28 26 Q32 26, 32 22 Q32 18, 28 18 Z" fill="#A23B72" opacity="0.7"/>
<path d="M10 34 L28 34 L28 42 Q24 42, 24 46 Q24 50, 28 50 L28 54 L10 54 Z" fill="#F18F01" opacity="0.7"/>
<path d="M28 34 L46 34 L46 54 L28 54 L28 50 Q32 50, 32 46 Q32 42, 28 42 Z" fill="#64ffda" opacity="0.5"/>
</svg>